<?xml version="1.0" standalone="no"?>
<!DOCTYPE svg PUBLIC "-//W3C//DTD SVG 20010904//EN"
 "http://www.w3.org/TR/2001/REC-SVG-20010904/DTD/svg10.dtd">
<svg version="1.0" xmlns="http://www.w3.org/2000/svg"
 width="1194.000000pt" height="1280.000000pt" viewBox="0 0 1194.000000 1280.000000"
 preserveAspectRatio="xMidYMid meet">
<g transform="translate(0.000000,1280.000000) scale(0.100000,-0.100000)"
fill="#000000" stroke="none">
<path d="M3990 12405 l0 -395 785 0 785 0 0 395 0 395 -785 0 -785 0 0 -395z"/>
<path d="M3213 11993 l-23 -4 0 -2395 0 -2394 -392 -2 -393 -3 -3 -392 -2
-393 392 -2 393 -3 5 -380 5 -380 388 -3 387 -2 0 3174 c0 2885 -1 3174 -16
3180 -17 7 -706 6 -741 -1z"/>
<path d="M5603 11993 l-23 -4 0 -2390 0 -2389 388 2 387 3 5 795 5 795 800 0
800 0 3 -798 2 -797 388 2 387 3 3 797 2 798 388 2 387 3 0 390 0 390 -1580 5
-1580 5 -3 1191 -2 1192 -31 6 c-35 7 -690 6 -726 -1z"/>
<path d="M9560 8000 l0 -790 390 0 390 0 2 398 3 397 393 3 392 2 0 390 0 390
-785 0 -785 0 0 -790z"/>
<path d="M11157 7993 c-4 -3 -7 -897 -7 -1985 l0 -1978 395 0 395 0 0 1985 0
1985 -388 0 c-214 0 -392 -3 -395 -7z"/>
<path d="M820 7600 l0 -390 780 0 780 0 0 390 0 390 -780 0 -780 0 0 -390z"/>
<path d="M0 6405 l0 -795 395 0 395 0 0 789 c0 710 -2 789 -16 795 -9 3 -186
6 -395 6 l-379 0 0 -795z"/>
<path d="M812 5588 c-9 -9 -12 -105 -12 -379 0 -202 3 -374 6 -383 5 -14 49
-16 390 -16 l384 0 -2 393 -3 392 -375 3 c-284 2 -379 -1 -388 -10z"/>
<path d="M5580 4000 l0 -1590 390 0 390 0 0 1590 0 1590 -390 0 -390 0 0
-1590z"/>
<path d="M7170 4000 l0 -1590 390 0 390 0 0 1590 0 1590 -390 0 -390 0 0
-1590z"/>
<path d="M8765 5578 c-3 -7 -4 -722 -3 -1588 l3 -1575 388 -3 387 -2 0 1590 0
1590 -385 0 c-299 0 -387 -3 -390 -12z"/>
<path d="M1600 4000 l0 -790 390 0 390 0 0 790 0 790 -390 0 -390 0 0 -790z"/>
<path d="M10360 3200 l0 -790 385 0 385 0 0 790 0 790 -385 0 -385 0 0 -790z"/>
<path d="M2400 2800 l0 -390 385 0 385 0 0 390 0 390 -385 0 -385 0 0 -390z"/>
<path d="M3190 2000 l0 -390 390 0 390 0 0 390 0 390 -390 0 -390 0 0 -390z"/>
<path d="M9560 1596 c0 -715 -2 -794 -16 -800 -9 -3 -186 -6 -395 -6 l-379 0
0 -395 0 -395 785 0 785 0 0 1195 0 1195 -390 0 -390 0 0 -794z"/>
<path d="M3997 1593 c-4 -3 -7 -363 -7 -800 l0 -793 1975 0 1975 0 0 395 0
395 -1582 2 -1583 3 -3 394 c-2 301 -5 397 -15 403 -15 9 -751 11 -760 1z"/>
<path d="M7970 1200 l0 -390 388 2 387 3 3 388 2 387 -390 0 -390 0 0 -390z"/>
</g>
</svg>
